<svg width="32" height="33" viewBox="0 0 32 33" fill="none" xmlns="http://www.w3.org/2000/svg">
<path d="M17.8422 6.13643C25.2688 7.57436 30.1607 14.4601 28.8301 21.4759C27.4992 28.4919 20.4338 33.0637 13.0069 31.6262C5.5799 30.1885 0.687349 23.3017 2.01826 16.2856C3.34934 9.26964 10.4153 4.69869 17.8422 6.13643Z" fill="#FF8BA7" stroke="#33272A"/>
<path d="M13.1967 4.98873C9.04868 5.44096 6.68186 7.33607 5.64402 8.24273C3.39467 10.475 4.14224 11.2176 5.23631 11.4437C6.33039 11.6698 7.38133 11.1626 7.65853 11.0027C8.39434 10.5783 8.81384 10.4332 9.45484 10.4382C10.7769 10.4485 10.4818 11.8208 10.1051 12.5744C10.0045 12.7756 9.20404 13.9815 10.4256 14.4658C11.6388 14.9466 12.5962 14.1118 13.1214 13.398C13.1245 13.3918 13.1267 13.385 13.1306 13.3793C13.7741 12.4201 14.6862 11.5368 15.9505 11.7052C16.5814 11.7893 17.1419 12.4266 17.4826 14.1598C17.7551 15.5465 18.9469 16.0964 19.5088 16.198C20.069 16.3128 21.0618 16.2843 21.5476 15.3041C21.8217 14.751 21.7791 13.4863 22.3471 13.1198C22.616 12.9464 23.4429 12.7031 25.7242 15.2575C27.812 17.5952 30.2585 18.0514 29.2656 14.8451C28.2728 11.6387 26.7818 9.93281 25.8046 8.9587C25.1997 8.35569 23.4335 6.79425 20.3938 5.78655C17.54 4.8405 14.4217 4.81698 13.1967 4.98873Z" fill="#C3F0CA" stroke="#33272A"/>
<path d="M17.5311 3.28989C17.0669 3.91102 16.2329 5.6217 15.9473 6.29366L17.8048 8.11161C18.1234 7.39047 18.7706 5.86912 19.1958 5.36336C19.6648 4.80551 20.0277 4.35819 20.8016 4.09154C21.3052 3.918 21.6586 3.86205 21.8433 3.78931C22.5192 3.5231 23.0989 2.43019 22.217 1.46722C22.1826 1.42237 21.4831 0.604549 20.0707 1.29923C19.0367 1.8078 18.1591 2.44952 17.5311 3.28989Z" fill="#C3F0CA"/>
<path d="M15.9473 6.29366C16.2329 5.6217 17.0669 3.91102 17.5311 3.28989C18.1591 2.44952 19.0367 1.8078 20.0707 1.29923C21.4831 0.604549 22.1826 1.42237 22.217 1.46722C23.0989 2.43019 22.5192 3.5231 21.8433 3.78931C21.6586 3.86205 21.3052 3.918 20.8016 4.09154C20.0277 4.35819 19.6648 4.80551 19.1958 5.36336C18.7706 5.86912 18.1234 7.39047 17.8048 8.11161" stroke="#33272A" stroke-linecap="round"/>
</svg>
